<?xml version="1.0" standalone="no"?><svg xmlns="http://www.w3.org/2000/svg" viewBox="0 0 1440 320"><path fill="#0d6efd" fill-opacity="1" d="M0,256L30,218.7C60,181,120,107,180,101.3C240,96,300,160,360,192C420,224,480,224,540,218.7C600,213,660,203,720,192C780,181,840,171,900,160C960,149,1020,139,1080,154.7C1140,171,1200,213,1260,213.3C1320,213,1380,171,1410,149.3L1440,128L1440,320L1410,320C1380,320,1320,320,1260,320C1200,320,1140,320,1080,320C1020,320,960,320,900,320C840,320,780,320,720,320C660,320,600,320,540,320C480,320,420,320,360,320C300,320,240,320,180,320C120,320,60,320,30,320L0,320Z"></path></svg>