<?xml version="1.0" standalone="no"?>
<svg xmlns:xlink="http://www.w3.org/1999/xlink" id="wave" style="transform:rotate(180deg); transition: 0.3s" viewBox="0 0 1440 300" version="1.1" xmlns="http://www.w3.org/2000/svg"><defs><linearGradient id="sw-gradient-0" x1="0" x2="0" y1="1" y2="0"><stop stop-color="rgba(255, 176, 0, 1)" offset="0%"/><stop stop-color="rgba(255, 176, 0, 1)" offset="100%"/></linearGradient></defs><path style="transform:translate(0, 0px); opacity:1" fill="url(#sw-gradient-0)" d="M0,150L720,0L1440,150L2160,240L2880,210L3600,210L4320,150L5040,0L5760,210L6480,150L7200,90L7920,270L8640,120L9360,0L10080,150L10800,210L11520,150L12240,240L12960,120L13680,270L14400,180L15120,240L15840,120L16560,120L17280,120L17280,300L16560,300L15840,300L15120,300L14400,300L13680,300L12960,300L12240,300L11520,300L10800,300L10080,300L9360,300L8640,300L7920,300L7200,300L6480,300L5760,300L5040,300L4320,300L3600,300L2880,300L2160,300L1440,300L720,300L0,300Z"/></svg>