<?xml version="1.0" standalone="no"?><svg xmlns="http://www.w3.org/2000/svg" viewBox="0 0 1440 320"><path fill="#ffffff" fill-opacity="1" d="M0,256L40,266.7C80,277,160,299,240,266.7C320,235,400,149,480,144C560,139,640,213,720,229.3C800,245,880,203,960,186.7C1040,171,1120,181,1200,181.3C1280,181,1360,171,1400,165.3L1440,160L1440,320L1400,320C1360,320,1280,320,1200,320C1120,320,1040,320,960,320C880,320,800,320,720,320C640,320,560,320,480,320C400,320,320,320,240,320C160,320,80,320,40,320L0,320Z"></path></svg>