<?xml version="1.0" standalone="no"?><svg xmlns="http://www.w3.org/2000/svg" viewBox="0 0 1440 320"><path fill="#e2edff" fill-opacity="1" d="M0,160L40,149.3C80,139,160,117,240,112C320,107,400,117,480,128C560,139,640,149,720,170.7C800,192,880,224,960,224C1040,224,1120,192,1200,149.3C1280,107,1360,53,1400,26.7L1440,0L1440,320L1400,320C1360,320,1280,320,1200,320C1120,320,1040,320,960,320C880,320,800,320,720,320C640,320,560,320,480,320C400,320,320,320,240,320C160,320,80,320,40,320L0,320Z"></path></svg>